# AST/ASF file generated using VICON BodyLanguage
# -----------------------------------------------
:version 1.10
:name VICON
:units
  mass 1.0
  length 0.45
  angle deg
:documentation
   .ast/.asf automatically generated from VICON data using
   VICON BodyBuilder and BodyLanguage model FoxedUp or BRILLIANT.MOD
:root
   order TX TY TZ RX RY RZ
   axis XYZ
   position 0 0 0  
   orientation 0 0 0 
:bonedata
  begin
     id 1 
     name lhipjoint
     direction 0.440178 -0.822639 0.359871 
     length 2.53113 
     axis 0 0 0  XYZ
  end
  begin
     id 2 
     name lfemur
     direction 0.34202 -0.939693 0  
     length 7.88132  
     axis 0 0 20  XYZ
    dof rx ry rz
    limits (-160.0 20.0)
           (-70.0 70.0)
           (-60.0 70.0)
  end
  begin
     id 3 
     name ltibia
     direction 0.34202 -0.939693 0   
     length 8.43783   
     axis 0 0 20   XYZ
    dof rx
    limits (-10.0 170.0)
  end
  begin
     id 4 
     name lfoot
     direction 0.0886351 -0.243523 0.965837   
     length 2.63414   
     axis -90 7.62852e-016 20   XYZ
    dof rx rz
    limits (-45.0 90.0)
           (-70.0 20.0)
  end
  begin
     id 5 
     name ltoes
     direction 1.53703e-011 -4.21717e-011 1   
     length 1.31427   
     axis -90 7.62852e-016 20   XYZ
    dof rx
    limits (-90.0 20.0)
  end
  begin
     id 6 
     name rhipjoint
     direction -0.399779 -0.839773 0.367367   
     length 2.47948  
     axis 0 0 0  XYZ 
  end
  begin
     id 7 
     name rfemur
     direction -0.34202 -0.939693 0   
     length 7.74806   
     axis 0 0 -20   XYZ
    dof rx ry rz
    limits (-160.0 20.0)
           (-70.0 70.0)
           (-70.0 60.0)
  end
  begin
     id 8 
     name rtibia
     direction -0.34202 -0.939693 0   
     length 8.74432   
     axis 0 0 -20   XYZ
    dof rx
    limits (-10.0 170.0)
 end
 begin
     id 9 
     name rfoot
     direction -0.108514 -0.298139 0.948334   
     length 2.66102  
     axis -90 -7.62852e-016 -20   XYZ
    dof rx rz
    limits (-45.0 90.0)
           (-20.0 70.0)
  end
  begin
     id 10 
     name rtoes
     direction -1.53392e-011 -4.22077e-011 1   
     length 1.31983   
     axis -90 -7.62852e-016 -20   XYZ
    dof rx
    limits (-90.0 20.0)
  end
  begin
     id 11 
     name lowerback
     direction 0.0113257 0.999866 0.0118602   
     length 2.58694   
     axis 0 0 0   XYZ
    dof rx ry rz
    limits (-20.0 45.0)
           (-30.0 30.0)
           (-30.0 30.0)
  end
  begin
     id 12 
     name upperback
     direction -0.0164747 0.995193 -0.0965375   
     length 2.52368   
     axis 0 0 0   XYZ
    dof rx ry rz
    limits (-20.0 45.0)
           (-30.0 30.0)
           (-30.0 30.0)
  end
  begin
     id 13 
     name thorax
     direction -0.0194301 0.99433 -0.104552   
     length 2.56099   
     axis 0 0 0   XYZ
    dof rx ry rz
    limits (-20.0 45.0)
           (-30.0 30.0)
           (-30.0 30.0)
  end
  begin
     id 14 
     name lowerneck
     direction 0.0148543 0.995587 -0.092657   
     length 1.71582   
     axis 0 0 0   XYZ
    dof rx ry rz
    limits (-20.0 45.0)
           (-30.0 30.0)
           (-30.0 30.0)
  end
  begin
     id 15 
     name upperneck
     direction -0.0135467 0.993656 -0.111639   
     length 1.68937   
     axis 0 0 0   XYZ
    dof rx ry rz
    limits (-20.0 45.0)
           (-30.0 30.0)
           (-30.0 30.0)
  end
  begin
     id 16
     name head
     direction -0.00615349 0.999547 -0.029448  
     length 1.7462  
     axis 0 0 0   XYZ
    dof rx ry rz
    limits (-20.0 45.0)
           (-30.0 30.0)
           (-30.0 30.0)
  end
  begin
     id 17 
     name lclavicle
     direction 0.988267 0.149885 0.0293713  
     length 4.47222  
     axis 0 0 0   XYZ
    dof ry rz
    limits (-20.0 10.0)
           (0.0 20.0)
  end
  begin
     id 18 
     name lhumerus
     direction 1 -4.48986e-011 -1.14833e-027   
     length 5.37148   
     axis 180 -30 -90   XYZ
    dof rx ry rz
    limits (-60.0 90.0)
           (-90.0 90.0)
           (-90.0 90.0)
  end
  begin
     id 19
     name lradius
     direction 0.999998 0.00170963 -0.000987055   
     length 3.94212   
     axis 180 -30 -90   XYZ
    dof rx
    limits (-10.0 170.0)
  end
  begin
     id 20
     name lwrist
     direction 0.999998 7.53149e-005 -0.00194706   
     length 1.97106   
     axis 4.65056e-015 90 90   XYZ
    dof ry
    limits (-180.0 0.0)
 end
  begin
     id 21 
     name lhand
     direction 1 -4.48973e-011 -1.31746e-026   
     length 1.17917   
     axis 8.4065e-015 90 90   XYZ
    dof rx rz
    limits (-90.0 90.0)
           (-45.0 45.0)
  end
  begin
     id 22 
     name lfingers
     direction 1 -4.49107e-011 -2.63492e-026   
     length 0.950679   
     axis 1.6813e-014 90 90   XYZ
    dof rx
    limits (0.0 90.0)
  end
  begin
     id 23
     name lthumb
     direction 0.707107 -6.35048e-011 0.707107   
     length 1.36499   
     axis -90 45 2.85299e-015   XYZ
    dof rx rz
    limits (-45.0 45.0)
           (-45.0 45.0)
  end
  begin
     id 24 
     name rclavicle
     direction -0.996699 0.0642895 -0.0495725   
     length 4.62611  
     axis 0 0 0   XYZ 
    dof ry rz
    limits (-10.0 20.0)
           (-20.0 0.0)
  end
  begin
     id 25 
     name rhumerus
     direction -1 -4.48919e-011 -2.41059e-027  
     length 5.4981   
     axis 180 30 90   XYZ
    dof rx ry rz
    limits (-90.0 60.0)
           (-90.0 90.0)
           (-90.0 90.0)
  end
  begin
     id 26 
     name rradius
     direction -0.999999 0.00118101 -0.000681858   
     length 3.48381   
     axis 180 30 90   XYZ
    dof rx
    limits (-10.0 170.0)
  end
  begin
     id 27 
     name rwrist
     direction -0.999999 0.000321823 -0.00132288   
     length 1.7419   
     axis 4.65056e-015 -90 -90   XYZ
    dof ry
    limits (-180.0 0.0)
  end
  begin
     id 28
     name rhand
     direction -1 -4.49022e-011 -1.31746e-026   
     length 1.34932   
     axis 8.4065e-015 -90 -90   XYZ
    dof rx rz
    limits (-90.0 90.0)
           (-45.0 45.0)
  end
  begin
     id 29
     name rfingers
     direction -1 -4.49178e-011 -2.63492e-026   
     length 1.08785   
     axis 1.6813e-014 -90 -90   XYZ
    dof rx
    limits (0.0 90.0)
  end
  begin
     id 30
     name rthumb
     direction -0.707107 -6.34713e-011 0.707107   
     length 1.56195   
     axis -90 -45 -2.85299e-015   XYZ
    dof rx rz
    limits (-45.0 45.0)
           (-45.0 45.0)
  end
:hierarchy
  begin
    root lhipjoint rhipjoint lowerback
    lhipjoint lfemur
    lfemur ltibia
    ltibia lfoot
    lfoot ltoes
    rhipjoint rfemur
    rfemur rtibia
    rtibia rfoot
    rfoot rtoes
    lowerback upperback
    upperback thorax
    thorax lowerneck lclavicle rclavicle
    lowerneck upperneck
    upperneck head
    lclavicle lhumerus
    lhumerus lradius
    lradius lwrist
    lwrist lhand lthumb
    lhand lfingers
    rclavicle rhumerus
    rhumerus rradius
    rradius rwrist
    rwrist rhand rthumb
    rhand rfingers
  end

#!OML:ASF X:\für Bonn\!DataBase\2005_08_10_Bjorn_Final\c3d\bjorn.ASF
:FULLY-SPECIFIED
:DEGREES
29
root 0.738655 19.2636 16.719 -182.412 -24.7303 -532.437
lowerback 21.9998 5.28468 -8.13013
upperback 19.8726 0.799586 -0.781354
thorax 9.93354 -2.45534 3.19339
lowerneck 2.63645 -1.92581 0.333459
upperneck 22.3451 -8.59537 15.535
head 7.0579 -3.89675 4.48696
rclavicle 1.03368e-013 7.15625e-014
rhumerus -20.1291 -11.281 -87.77
rradius 38.7042
rwrist 8.07267
rhand -17.673 10.0686
rfingers 7.12502
rthumb 8.58594 -19.7368
lclavicle 1.03368e-013 7.15625e-014
lhumerus -10.6189 -15.2909 73.8181
lradius 28.0355
lwrist -20.9069
lhand -11.7418 -362.697
lfingers 7.12502
lthumb 14.3058 26.79
rfemur -14.0875 4.1512 21.21
rtibia 30.2232
rfoot 3.2637 33.2729
rtoes 5.04387
lfemur -15.4193 -3.7122 -3.04684
ltibia 23.965
lfoot -4.56178 -3.80073
ltoes -16.5758
30
root 0.696084 19.279 16.7671 -182.13 -24.0958 -532.468
lowerback 22.2899 5.33922 -8.23729
upperback 19.8779 0.75827 -0.937178
thorax 9.79964 -2.49418 3.08287
lowerneck 2.50582 -1.84264 -0.0946478
upperneck 22.4598 -8.57388 15.8096
head 7.13791 -3.89602 4.65458
rclavicle 1.17681e-013 8.11041e-014
rhumerus -20.3684 -11.0017 -87.811
rradius 38.4998
rwrist 7.5494
rhand -17.6416 10.0059
rfingers 7.12502
rthumb 8.61624 -19.7983
lclavicle 1.17681e-013 8.11041e-014
lhumerus -9.87742 -14.0636 73.0626
lradius 28.7228
lwrist -23.6277
lhand -10.421 -362.011
lfingers 7.12502
lthumb 15.5782 27.3815
rfemur -14.6125 3.56573 21.1341
rtibia 30.493
rfoot 2.773 32.7613
rtoes 2.77959
lfemur -15.522 -3.23106 -3.18758
ltibia 23.893
lfoot -4.51661 -3.57386
ltoes -16.3814
31
root 0.653063 19.2934 16.8139 -181.853 -23.4507 -532.494
lowerback 22.5641 5.39986 -8.31196
upperback 19.8782 0.733335 -1.09249
thorax 9.6655 -2.51961 2.95335
lowerneck 2.36709 -1.77876 -0.399007
upperneck 22.6224 -8.57035 15.9683
head 7.22983 -3.89865 4.76147
rclavicle -1.17681e-013 -1.76521e-013
rhumerus -20.605 -10.6999 -87.8542
rradius 38.2876
rwrist 6.88263
rhand -17.5388 9.8728
rfingers 7.12502
rthumb 8.71538 -19.9273
lclavicle -1.17681e-013 -1.76521e-013
lhumerus -9.19062 -12.8603 72.3705
lradius 29.5111
lwrist -26.3425
lhand -9.20003 -361.469
lfingers 7.12502
lthumb 16.7539 27.828
rfemur -15.1343 2.95092 21.0679
rtibia 30.7672
rfoot 2.31244 32.2567
rtoes 0.641035
lfemur -15.6086 -2.74366 -3.3353
ltibia 23.7982
lfoot -4.47382 -3.31525
ltoes -16.4227
32
root 0.611944 19.3081 16.861 -181.581 -22.8424 -532.519
lowerback 22.827 5.45097 -8.40257
upperback 19.8805 0.694239 -1.21925
thorax 9.54211 -2.5566 2.86669
lowerneck 2.25531 -1.7039 -0.704542
upperneck 22.78 -8.55169 16.128
head 7.31393 -3.89675 4.87114
rclavicle -5.88403e-014 -9.70069e-014
rhumerus -20.8094 -10.3449 -87.8871
rradius 38.075
rwrist 6.08957
rhand -17.3636 9.728
rfingers 7.12502
rthumb 8.8845 -20.065
lclavicle -5.88403e-014 -9.70069e-014
lhumerus -8.53727 -11.4028 71.8171
lradius 30.2849
lwrist -29.1853
lhand -8.30833 -361.198
lfingers 7.12502
lthumb 17.6121 28.0241
rfemur -15.6636 2.36488 21.0115
rtibia 31.0452
rfoot 1.86368 31.6646
rtoes -0.895496
lfemur -15.6922 -2.34355 -3.47038
ltibia 23.6819
lfoot -4.40489 -3.03787
ltoes -16.1688
33
root 0.570401 19.3231 16.9071 -181.298 -22.2428 -532.557
lowerback 23.0466 5.50926 -8.45128
upperback 19.8933 0.676293 -1.3574
thorax 9.45092 -2.57807 2.74012
lowerneck 2.1832 -1.65758 -0.890873
upperneck 22.9103 -8.55989 16.2394
head 7.38019 -3.9039 4.94247
rclavicle 3.18055e-015 -3.33958e-014
rhumerus -20.9936 -10.0264 -87.9641
rradius 37.8904
rwrist 5.11777
rhand -17.1563 9.52535
rfingers 7.12502
rthumb 9.08453 -20.259
lclavicle 3.18055e-015 -3.33958e-014
lhumerus -7.86144 -9.99534 71.3418
lradius 31.0561
lwrist -31.6319
lhand -7.9135 -361.03
lfingers 7.12502
lthumb 17.9921 28.1575
rfemur -16.1954 1.71162 20.9518
rtibia 31.3183
rfoot 1.4115 31.0924
rtoes -2.44211
lfemur -15.783 -1.96755 -3.62926
ltibia 23.5549
lfoot -4.37021 -2.73089
ltoes -16.1774
34
root 0.53095 19.3366 16.9512 -181.031 -21.6669 -532.589
lowerback 23.2637 5.56452 -8.5099
upperback 19.9105 0.651043 -1.47537
thorax 9.36804 -2.60703 2.64237
lowerneck 2.11617 -1.60643 -1.03125
upperneck 23.0404 -8.55036 16.3007
head 7.44056 -3.90218 4.98992
rclavicle 1.43125e-014 -7.79236e-014
rhumerus -21.1633 -9.63717 -88.041
rradius 37.7323
rwrist 4.02502
rhand -16.9089 9.26847
rfingers 7.12502
rthumb 9.32329 -20.5054
lclavicle 1.43125e-014 -7.79236e-014
lhumerus -7.20614 -8.49724 70.9934
lradius 31.7998
lwrist -33.8335
lhand -7.98814 -360.887
lfingers 7.12502
lthumb 17.9202 28.3073
rfemur -16.7021 1.09809 20.9097
rtibia 31.5867
rfoot 0.984395 30.4833
rtoes -3.58843
lfemur -15.861 -1.58054 -3.77938
ltibia 23.4176
lfoot -4.34143 -2.46881
ltoes -16.1454
35
root 0.492551 19.3508 16.9941 -180.782 -21.1079 -532.614
lowerback 23.4953 5.61917 -8.55653
upperback 19.9199 0.627038 -1.58412
thorax 9.26808 -2.63296 2.54923
lowerneck 2.06498 -1.56811 -1.09063
upperneck 23.1765 -8.55084 16.3009
head 7.49699 -3.90322 5.00178
rclavicle -4.29375e-014 -4.45278e-014
rhumerus -21.34 -9.21244 -88.1432
rradius 37.5833
rwrist 2.82099
rhand -16.6013 8.86225
rfingers 7.12502
rthumb 9.62001 -20.8981
lclavicle -4.29375e-014 -4.45278e-014
lhumerus -6.61195 -7.11508 70.7329
lradius 32.6167
lwrist -35.6767
lhand -8.38572 -360.587
lfingers 7.12502
lthumb 17.5377 28.6423
rfemur -17.1773 0.530118 20.8807
rtibia 31.8419
rfoot 0.454724 29.8535
rtoes -4.64912
lfemur -15.9266 -1.23282 -3.92129
ltibia 23.274
lfoot -4.28396 -2.18046
ltoes -16.1082
36
root 0.453895 19.3656 17.0359 -180.53 -20.6094 -532.638
lowerback 23.7014 5.66081 -8.57428
upperback 19.9388 0.596531 -1.63923
thorax 9.19352 -2.66321 2.50062
lowerneck 2.02577 -1.53657 -1.24564
upperneck 23.2929 -8.56282 16.3601
head 7.55045 -3.91383 5.05058
rclavicle 7.79236e-014 1.09729e-013
rhumerus -21.4914 -8.75532 -88.1804
rradius 37.4391
rwrist 1.54771
rhand -16.2863 8.34156
rfingers 7.12502
rthumb 9.92395 -21.4045
lclavicle 7.79236e-014 1.09729e-013
lhumerus -5.97668 -5.80866 70.6561
lradius 33.3974
lwrist -37.1735
lhand -9.12393 -360.158
lfingers 7.12502
lthumb 16.8271 29.1327
rfemur -17.6366 -0.118083 20.8572
rtibia 32.075
rfoot -0.0918954 29.2673
rtoes -5.72156
lfemur -16.0161 -0.973456 -4.05974
ltibia 23.1361
lfoot -4.26221 -1.8809
ltoes -15.8261
37
root 0.414986 19.3801 17.0753 -180.285 -20.1147 -532.661
lowerback 23.8876 5.7392 -8.56691
upperback 19.9714 0.619618 -1.62464
thorax 9.1397 -2.67095 2.50638
lowerneck 1.93012 -1.55788 -1.51257
upperneck 23.4216 -8.65427 16.4749
head 7.63214 -3.96024 5.13297
rclavicle 2.70347e-014 9.54166e-014
rhumerus -21.6214 -8.35161 -88.1025
rradius 37.3185
rwrist 0.205213
rhand -15.9264 7.73011
rfingers 7.12502
rthumb 10.2712 -21.9991
lclavicle 2.70347e-014 9.54166e-014
lhumerus -5.32857 -4.72506 70.7622
lradius 34.2022
lwrist -38.2222
lhand -10.2861 -359.707
lfingers 7.12502
lthumb 15.7082 29.6756
rfemur -18.0663 -0.731732 20.8369
rtibia 32.2907
rfoot -0.598903 28.7156
rtoes -6.44476
lfemur -16.0835 -0.682127 -4.20504
ltibia 22.9899
lfoot -4.23128 -1.60957
ltoes -15.6671
38
root 0.376462 19.3938 17.1141 -180.044 -19.643 -532.682
lowerback 24.0669 5.81496 -8.53627
upperback 20.0013 0.648066 -1.58502
thorax 9.08528 -2.67378 2.52679
lowerneck 1.91763 -1.59691 -1.76506
upperneck 23.4829 -8.75283 16.5938
head 7.67705 -4.01469 5.21457
rclavicle -6.36111e-014 -2.06736e-014
rhumerus -21.7307 -7.9552 -88.0135
rradius 37.1914
rwrist -1.1736
rhand -15.6296 6.97744
rfingers 7.12502
rthumb 10.5575 -22.7374
lclavicle -6.36111e-014 -2.06736e-014
lhumerus -4.69831 -3.8042 70.959
lradius 34.989
lwrist -38.7104
lhand -11.9852 -359.348
lfingers 7.12502
lthumb 14.0712 30.1561
rfemur -18.4646 -1.26432 20.8171
rtibia 32.4811
rfoot -1.1781 28.1472
rtoes -7.05062
lfemur -16.1575 -0.415554 -4.34636
ltibia 22.849
lfoot -4.22011 -1.34656
ltoes -15.5206
39
root 0.338746 19.408 17.1524 -179.803 -19.1805 -532.702
lowerback 24.2529 5.88181 -8.44957
upperback 20.0325 0.673615 -1.59697
thorax 9.02934 -2.66713 2.45906
lowerneck 1.85741 -1.64071 -1.85746
upperneck 23.5831 -8.89884 16.7366
head 7.74753 -4.07699 5.27214
rclavicle 1.59028e-015 -9.54166e-014
rhumerus -21.8435 -7.5952 -88.0416
rradius 37.0968
rwrist -2.57361
rhand -15.4109 6.17599
rfingers 7.12502
rthumb 10.7684 -23.528
lclavicle 1.59028e-015 -9.54166e-014
lhumerus -4.06823 -3.06554 71.0908
lradius 35.7723
lwrist -38.7408
lhand -13.9848 -359.093
lfingers 7.12502
lthumb 12.1438 30.5343
rfemur -18.8579 -1.78348 20.8046
rtibia 32.6541
rfoot -1.82599 27.5749
rtoes -7.90879
lfemur -16.2393 -0.143597 -4.48426
ltibia 22.7051
lfoot -4.20207 -1.08237
ltoes -15.2241
